<svg width="444" height="444" viewBox="0 0 444 444" fill="none" xmlns="http://www.w3.org/2000/svg">
<path fill-rule="evenodd" clip-rule="evenodd" d="M199 1.13L190.5 1.994L179.83 4.012L169.159 6.03L159.066 9.028L148.972 12.027L138.736 16.101L128.5 20.174L119.952 24.584L111.404 28.994L100.537 36.068L89.669 43.142L82.084 49.29L74.5 55.437L64.944 64.969L55.387 74.5L47.803 84L40.219 93.5L34.116 102.962L28.012 112.424L22.083 124.462L16.154 136.5L12.603 146.136L9.053 155.771L6.487 165.636L3.922 175.5L1.961 187.5L0 199.5L0.0189991 221L0.0370007 242.5L1.512 252.883L2.988 263.266L5.02 271.883L7.052 280.5L10.452 291.078L13.851 301.655L18.38 311.946L22.909 322.236L28.089 331.368L33.268 340.5L41.327 351.818L49.386 363.137L59.943 374.244L70.5 385.352L79.307 392.692L88.114 400.032L98.346 406.897L108.578 413.761L117.052 418.343L125.526 422.925L136.222 427.406L146.917 431.887L156.873 434.866L166.829 437.844L180.165 440.649L193.5 443.454L221 443.477L248.5 443.5L260 441.188L271.5 438.876L277 437.365L282.5 435.854L293.5 432.308L304.5 428.763L318.5 421.994L332.5 415.225L344.642 407.101L356.785 398.977L365.142 391.654L373.5 384.332L384.047 373.306L394.593 362.281L403.047 350.126L411.5 337.972L416.821 328.236L422.142 318.5L425.962 309.5L429.783 300.5L433.314 289.5L436.845 278.5L438.336 272L439.826 265.5L441.626 254.5L443.425 243.5L443.33 222.5L443.235 201.5L441.554 190.5L439.873 179.5L436.929 167.779L433.985 156.058L430.47 146.346L426.954 136.634L422.561 127.361L418.169 118.089L412.674 108.752L407.178 99.414L399.692 89.457L392.206 79.5L383.853 70.572L375.5 61.643L365.078 52.69L354.656 43.738L344.078 36.841L333.5 29.944L322 24.085L310.5 18.227L300.891 14.65L291.283 11.073L282.514 8.532L273.746 5.991L263.623 4.037L253.5 2.084L242.576 1.042L231.653 0L219.576 0.132999L207.5 0.266001L199 1.13ZM254 17.127L266.5 19.08L272.5 20.616L278.5 22.151L289 25.737L299.5 29.323L309.5 34.004L319.5 38.684L329 44.467L338.5 50.249L347.802 57.233L357.103 64.218L368.18 75.359L379.258 86.5L387.459 97.5L395.66 108.5L399.232 114.5L402.805 120.5L407.789 130.5L412.774 140.5L416.298 150L419.823 159.5L422.368 169L424.913 178.5L426.427 187.5L427.94 196.5L428.893 210.263L429.846 224.026L428.967 236.429L428.088 248.832L426.949 255.666L425.81 262.5L423.861 270.5L421.912 278.5L418.456 289L414.999 299.5L408.507 312.835L402.016 326.169L396.381 334.835L390.747 343.5L383.962 352L377.177 360.5L367.838 369.67L358.5 378.841L353.159 383.336L347.818 387.831L337.96 394.477L328.103 401.124L317.801 406.504L307.5 411.883L296 416.327L284.5 420.771L274 423.37L263.5 425.97L254 427.705L244.5 429.44L221.5 429.425L198.5 429.411L188.912 427.73L179.324 426.049L167.769 423.069L156.215 420.09L146.857 416.409L137.5 412.728L128.607 408.282L119.714 403.836L111.107 398.493L102.5 393.15L92 384.698L81.5 376.247L71.965 366.373L62.43 356.5L56.191 348.277L49.952 340.055L44.886 331.777L39.821 323.5L34.013 311.5L28.205 299.5L25.031 290L21.857 280.5L19.82 272L17.782 263.5L16.37 255.5L14.958 247.5L14.347 227.5L13.736 207.5L14.919 198.5L16.103 189.5L18.098 179.614L20.093 169.727L24.435 156.614L28.776 143.5L33.216 134L37.655 124.5L43.311 115.219L48.967 105.938L54.53 98.416L60.092 90.895L68.621 81.451L77.15 72.008L86.825 63.931L96.5 55.853L107 48.833L117.5 41.813L129.5 35.945L141.5 30.078L150 26.994L158.5 23.909L167.723 21.49L176.946 19.071L186.223 17.421L195.5 15.772L206 14.994L216.5 14.216L229 14.695L241.5 15.173L254 17.127ZM202.736 34.25L201.09 35.5L200.127 38.099L199.165 40.697L200.347 43.068L201.529 45.44L204.084 46.874L206.639 48.308L209.069 47.663L211.5 47.018L212.857 46.134L214.214 45.25L213.516 42.072L212.818 38.894L211.659 39.285L210.5 39.677V42.088V44.5L208.195 44.827L205.89 45.154L204.445 43.954L203 42.755L203.015 40.628L203.031 38.5L203.957 37.035L204.884 35.57L208.942 35.732L213 35.894V35.054V34.214L211.418 33.607L209.836 33H207.109H204.382L202.736 34.25ZM233.455 35.455L231 37.909V40.031V42.154L233.923 45.077L236.846 48H239.288H241.73L244.365 45.927L247 43.855V40.427V37L245 35L243 33H239.455H235.909L233.455 35.455ZM241.777 36.557L244 38.113V40.357V42.6L242.8 43.8L241.6 45H239.371H237.143L235.537 43.395L233.932 41.789L234.567 39.645L235.202 37.5L236.792 36.25L238.382 35H238.969H239.555L241.777 36.557ZM172.389 42.196L173.028 45.391L174.053 49.196L175.077 53L176.289 52.994L177.5 52.989L181.25 51.947L185 50.906V49.825V48.744L181.157 49.359L177.313 49.974L175.997 44.487L174.681 39H173.215H171.75L172.389 42.196ZM285.686 50.499L283 57.04V57.52V58H284.319H285.637L287.165 54.774L288.693 51.548L289.392 55.274L290.091 59H291.486H292.882L293.497 58.005L294.111 57.011L296.009 55.995L297.906 54.98L296.453 58.458L295 61.936V62.468V63H296.369H297.739L300.41 56.841L303.081 50.681L302.059 49.659L301.036 48.636L296.952 51.918L292.867 55.201L292.603 54.85L292.339 54.5L291.42 49.574L290.5 44.649L289.436 44.303L288.372 43.957L285.686 50.499ZM145.932 48.25L145.865 48.5L145.348 56.25L144.831 64H146.415H148V62.003V60.006L151.25 58.633L154.5 57.26L155.45 58.13L156.4 59L158.45 58.954L160.5 58.908L154.5 53.456L148.5 48.004L147.25 48.002L146 48L145.932 48.25ZM151.063 53.576L152.371 55.152L150.936 56.061L149.5 56.969L148.761 56.985L148.022 57L148.229 54.5L148.436 52H149.096H149.755L151.063 53.576ZM318 66.551L312.5 70.051L312.116 71.177L311.732 72.304L314.721 71.706L317.709 71.108L319.855 72.611L322 74.113V76.557V79H323.392H324.783L325.358 76.708L325.934 74.416L326.604 68.708L327.275 63L325.388 63.026L323.5 63.051L318 66.551ZM323.264 68.814L322.486 70.918L320.998 69.999L319.51 69.079L321.503 67.621L323.497 66.164L323.77 66.437L324.043 66.71L323.264 68.814ZM203 69.607L200.5 70.064L192.5 71.59L184.5 73.116L175 76.131L165.5 79.146L157.015 83.118L148.53 87.091L137.515 94.428L126.5 101.766L117.427 110.31L108.355 118.854L101.931 127.009L95.508 135.164L89.791 144.682L84.073 154.2L79.927 164.805L75.781 175.41L73.433 184.666L71.085 193.922L69.913 202.711L68.742 211.5L69.308 228L69.873 244.5L71.893 253.694L73.913 262.889L76.517 270.694L79.121 278.5L83.932 288.609L88.743 298.718L94.331 307.109L99.92 315.5L107.781 324.5L115.641 333.5L122.57 339.134L129.5 344.767L138 350.448L146.5 356.129L155.714 360.59L164.928 365.051L175.356 368.43L185.784 371.81L195.068 373.405L204.352 375H222.045H239.738L248.619 373.475L257.5 371.95L267.5 368.888L277.5 365.826L287.5 361.009L297.5 356.193L305.404 351.016L313.309 345.839L319.947 340.542L326.585 335.246L333.419 327.873L340.254 320.5L344.475 315L348.697 309.5L354.16 300.412L359.623 291.324L363.257 282.866L366.891 274.408L369.481 265.467L372.072 256.527L373.578 248.013L375.084 239.5L375.072 222L375.06 204.5L373.566 195.987L372.072 187.473L369.593 178.918L367.114 170.362L363.22 161.385L359.327 152.408L355.194 145.332L351.061 138.255L344.905 129.878L338.749 121.5L329.553 112.497L320.357 103.494L311.177 97.015L301.997 90.536L292.748 85.794L283.5 81.053L275 77.936L266.5 74.818L256 72.316L245.5 69.813L225.5 69.482L205.5 69.151L203 69.607ZM253.5 74.447L264.5 76.998L272 79.575L279.5 82.153L287.975 86.117L296.45 90.081L306.475 96.785L316.5 103.489L325.876 112.494L335.252 121.5L341.415 129.5L347.579 137.5L350.171 141.55L352.763 145.6L355.399 150.8L358.034 156H357.677H357.321L352.878 150.25L348.434 144.5L346.009 140.5L343.583 136.5L338.252 129.25L332.921 122H332.018H331.115L306.946 140.102L282.776 158.205L281.498 156.852L280.22 155.5L263.016 132.5L245.812 109.5L244.507 108.757L243.202 108.014L226.351 120.559L209.5 133.104L209.185 133.997L208.87 134.89L213.763 141.195L218.656 147.5L232.828 166.271L247 185.043V186.486V187.93L244.978 189.012L242.957 190.094L234.623 196.297L226.289 202.5L212.538 212.5L198.787 222.5L188.492 230L178.196 237.5L164.487 247.5L150.779 257.5L140.14 265.308L129.5 273.117L117.615 281.808L105.729 290.5L103.178 292.609L100.628 294.717L112.407 310.313L124.186 325.91L125.587 327.073L126.989 328.235L129.244 327.773L131.5 327.311L162 304.463L192.5 281.615L208 270.074L223.5 258.533L224.615 257.09L225.731 255.648L226.33 247.881L226.929 240.113L229.795 233.807L232.662 227.5L239.543 221.637L246.424 215.775L249.712 210.671L253 205.567V204.784V204H255.977H258.954L260.669 201.382L262.385 198.764L262.252 193.632L262.119 188.5L262.601 184.381L263.083 180.263L266.645 176.102L270.207 171.94L273.726 170.47L277.244 169H280.654H284.064L287.282 170.415L290.5 171.83L293.337 174.19L296.174 176.551L297.09 181.451L298.005 186.351L296.446 192.569L294.887 198.786L295.193 202.643L295.5 206.5L293.25 206.82L291 207.139V208.168V209.198L288.165 211.849L285.33 214.5L284.899 215.797L284.469 217.094L280.64 215.494L276.811 213.894L274.405 215.47L272 217.046V217.88V218.714L285.149 236.107L298.298 253.5L299.574 253.809L300.85 254.118L308.485 242.555L316.12 230.992L315.443 224.117L314.765 217.242L315.895 215.371L317.025 213.5L316.762 216.5L316.5 219.5H318.444H320.388L322.201 216.395L324.015 213.29L318.161 205.866L312.307 198.441L311.185 196.347L310.064 194.252L311.782 192.818L313.5 191.384L315.628 189.942L317.756 188.5L331.128 178.271L344.5 168.042L351.359 162.388L358.218 156.734L359.103 158.117L359.988 159.5L363.449 168.5L366.911 177.5L368.477 183.729L370.044 189.957L371.089 195.229L372.134 200.5L372.92 211.5L373.706 222.5L372.894 233.592L372.083 244.685L370.479 252.592L368.876 260.5L365.322 271L361.768 281.5L357.877 289.241L353.987 296.982L350.329 302.741L346.672 308.5L342.142 314.5L337.611 320.5L331.556 326.843L325.5 333.185L318 339.253L310.5 345.321L303.808 349.617L297.115 353.913L290.973 357.014L284.831 360.114L277.165 363.072L269.5 366.031L260 368.469L250.5 370.908L243 372.014L235.5 373.119L222 373.111L208.5 373.103L199.468 371.635L190.435 370.168L184.197 368.551L177.959 366.935L170.084 364.031L162.209 361.127L153.945 356.972L145.681 352.817L141.591 350.183L137.5 347.549L130 341.865L122.5 336.181L113.898 327.341L105.296 318.5L100.831 312.5L96.365 306.5L92.794 300.5L89.223 294.5L86.207 288.469L83.192 282.438L79.132 270.469L75.073 258.5L73.473 249.5L71.874 240.5L71.325 227L70.777 213.5L72.325 202L73.873 190.5L76.495 181.5L79.118 172.5L82.571 164L86.025 155.5L90.629 147.5L95.233 139.5L100.473 132.5L105.713 125.5L112.466 118.233L119.22 110.965L127.36 104.423L135.5 97.881L143.665 92.925L151.83 87.969L162.268 83.484L172.707 79L184.104 76.021L195.5 73.043L202.5 72.078L209.5 71.114L226 71.505L242.5 71.896L253.5 74.447ZM99.75 77.484L97 79.904V80.523V81.141L101.157 86.071L105.313 91H106.657H108V90.434V89.869L106.997 87.995L105.995 86.121L107.233 85.356L108.471 84.591L111.736 84.872L115 85.153V84.185V83.217L112.535 82.598L110.071 81.98L110.657 80.453L111.243 78.926L109.466 76.963L107.69 75L105.095 75.032L102.5 75.063L99.75 77.484ZM107 79.878V81.755L105.45 83.042L103.9 84.328L102.286 82.714L100.672 81.1L101.958 79.55L103.245 78H105.122H107V79.878ZM342.25 83.959L338 88.699V89.849V91H338.979H339.959L344.229 86.367L348.5 81.734V80.7V79.667L347.5 79.443L346.5 79.218L342.25 83.959ZM79.187 98.549L76.874 100.202L75.892 102.785L74.91 105.368L76.041 108.098L77.172 110.828L80.012 112.005L82.853 113.182L84.96 112.513L87.068 111.844L89.034 109.733L91 107.623V104.922V102.222L89.25 100.114L87.5 98.006L84.5 97.451L81.5 96.896L79.187 98.549ZM356.938 99.908L353.796 103.05L354.436 105.775L355.075 108.5L357.593 110.75L360.112 113H362.421H364.73L367.365 110.927L370 108.855V105.538V102.222L368.25 100.114L366.5 98.006L363.29 97.386L360.08 96.766L356.938 99.908ZM86.429 101.571L88 103.143V105V106.857L86.429 108.429L84.857 110H82.952H81.046L79.408 107.5L77.77 105L79.408 102.5L81.046 100H82.952H84.857L86.429 101.571ZM365.464 101.96L367.237 103.919L366.603 106.444L365.97 108.97L363.472 109.596L360.974 110.223L359.487 108.989L358 107.755V105.078V102.4L359.2 101.2L360.4 100H362.045H363.69L365.464 101.96ZM377.248 126.627L370.996 130.185L371.607 131.173L372.218 132.162L374.505 131.588L376.791 131.014L377.369 132.519L377.946 134.024L376.811 136.516L375.675 139.008L376.406 139.739L377.137 140.47L378.931 138.091L380.726 135.712L381.907 136.442L383.088 137.172L385.544 135.563L388 133.954V132.011V130.068L386.315 126.534L384.63 123L384.065 123.035L383.5 123.07L377.248 126.627ZM60.871 125.25L59.36 126.5L57.68 129.215L56 131.93V132.267V132.604L62.43 136.039L68.859 139.474L69.678 138.655L70.497 137.836L68.669 136.5L66.842 135.164L67.921 133.148L69 131.131V128.766V126.4L67.8 125.2L66.6 124H64.491H62.382L60.871 125.25ZM66 128.918V130.836L65.4 132.4L64.8 133.963L62.65 132.846L60.5 131.729L60.169 131.45L59.838 131.171L60.954 129.086L62.07 127H64.035H66V128.918ZM384.575 129.443L385.188 131.886L384.535 132.943L383.882 134H382.476H381.07L379.909 131.829L378.747 129.658L380.565 128.329L382.382 127H383.172H383.962L384.575 129.443ZM30.368 214.571L27 218.142V222.349V226.555L28.561 228.783L30.121 231.011L33.011 232.506L35.901 234H39.068H42.235L46.118 230.118L50 226.235V222.5V218.765L46.118 214.882L42.235 211H37.986H33.736L30.368 214.571ZM399.011 214.754L395 218.765V222.5V226.235L398.882 230.118L402.765 234H406.811H410.858L414.429 230.632L418 227.264V222.844V218.424L415.238 215.116L412.476 211.808L407.749 211.275L403.022 210.742L399.011 214.754ZM330 225.465V226.93L326.847 230.522L323.693 234.114L316.347 250.613L309 267.112V267.901V268.69L310.795 270.314L312.589 271.938L328.795 259.786L345 247.633L344.963 244.566L344.927 241.5L338.432 232.75L331.938 224H330.969H330V225.465ZM48.5 275.571L44.5 277.024L43.294 277.463L42.088 277.903L43.654 282.498L45.22 287.093L46.36 286.672L47.5 286.25L47.327 285.356L47.154 284.463L46.469 281.731L45.783 279H47.322H48.861L49.18 281.172L49.5 283.343L50.902 283.806L52.304 284.268L51.685 281.173L51.066 278.078L52.059 277.464L53.052 276.85L54.124 279.925L55.196 283H56.534H57.873L56.644 278.756L55.415 274.511L53.958 274.314L52.5 274.117L48.5 275.571ZM393.315 275.016L391.131 275.887L390.065 277.878L389 279.869V281.934V284L391 286L393 288H396H399L401 286L403 284V281.611V279.222L401.25 277.198L399.5 275.174L397.5 274.66L395.5 274.145L393.315 275.016ZM398.456 278.344L400.295 279.689L399.656 282.234L399.017 284.779L397.436 285.386L395.855 285.993L393.928 284.961L392 283.93V281.665V279.4L393.2 278.2L394.4 277H395.509H396.618L398.456 278.344ZM57.765 299.06L54.03 301.032L53.43 303.423L52.83 305.814L53.914 307.839L54.998 309.865L57.002 310.501L59.007 311.137L63.503 308.891L68 306.645V305.823V305H66.901H65.802L62.409 306.61L59.016 308.22L57.508 307.641L56 307.063V305.052V303.041L60 301L64 298.959V297.98V297L62.75 297.044L61.5 297.088L57.765 299.06ZM381 300.943V301.886L383.043 305.348L385.085 308.81L380.793 309.52L376.5 310.231L375.644 310.74L374.789 311.249L379.644 314.107L384.5 316.966L386.25 316.983L388 317V315.979V314.957L385.304 313.729L382.609 312.501L385.554 311.966L388.5 311.431L388.361 309.966L388.222 308.5L387.459 306.634L386.697 304.767L388.783 305.884L390.869 307H391.934H393V306.017V305.034L388.033 302.517L383.066 300H382.033H381V300.943ZM365.174 327.314L363 329.629V331.279V332.93L365.12 334.064L367.24 335.199L370.079 333.099L372.919 331H373.46H374V332.443V333.887L371.892 335.363L369.783 336.84L370.452 337.923L371.121 339.005L373.038 337.98L374.954 336.954L376.032 334.939L377.111 332.924L376.488 330.962L375.865 329H373.624H371.382L369.441 330.468L367.5 331.936L366.75 331.968L366 332V330.622V329.245L367.5 328L369 326.755V325.878V325H368.174H367.349L365.174 327.314ZM81.753 338.719L77.5 342.438L77.15 342.652L76.8 342.867L77.49 343.984L78.18 345.1L81.477 342.586L84.773 340.071L83.911 343.786L83.048 347.5L83.024 349.25L83 351L84.25 350.97L85.5 350.94L89.999 347.052L94.498 343.165L93.718 342.385L92.938 341.605L89.859 343.424L86.779 345.244L87.483 340.122L88.188 335H87.097H86.006L81.753 338.719ZM349.076 346.422L345.834 349.766L350.119 353.883L354.403 358H355.629H356.855L359.403 354.75L361.95 351.5L360.904 351.143L359.857 350.786L357.534 352.968L355.211 355.15L354.508 354.012L353.804 352.874L355.578 350.913L357.353 348.953L356.353 347.953L355.353 346.953L353.521 348.976L351.69 351H350.845H350V349.814V348.629L352.075 346.42L354.15 344.211L353.234 343.644L352.317 343.078L349.076 346.422ZM101.08 358.755L97.013 363.5L97.006 364L97 364.5L100.512 367.302L104.023 370.104L105.178 369.39L106.332 368.677L103.539 366.449L100.745 364.222L101.465 363.056L102.185 361.891L104.679 363.526L107.174 365.16L107.757 364.576L108.341 363.992L106.095 361.602L103.85 359.211L104.999 358.501L106.148 357.79L108.388 359.895L110.629 362H111.314H112V360.619V359.237L108.573 356.624L105.147 354.01L101.08 358.755ZM332.794 360.539L332.255 361.079L332.757 365.539L333.26 370H332.752H332.244L328.491 368.432L324.737 366.863L323.934 367.682L323.131 368.5L326.661 373.25L330.192 378H331.596H333V377.122V376.245L331.5 375L330 373.755V372.771V371.786L331.25 372.297L332.5 372.808L334.25 373.511L336 374.214V370.472V366.73L338.129 369.436L340.257 372.143L341.225 371.175L342.193 370.207L338.383 365.103L334.573 360H333.953H333.333L332.794 360.539ZM121.455 373.455L119 375.909V378V380.091L121.455 382.545L123.909 385H125.898H127.887L129.434 382.791L130.981 380.581L129.994 379.594L129.007 378.607L127.562 380.554L126.117 382.5L124.309 381.393L122.5 380.286L122.167 378.595L121.835 376.904L123.04 375.452L124.245 374H126.587H128.93L130.057 376.107L131.185 378.215L132.343 377.038L133.5 375.861L130.694 373.43L127.888 371H125.899H123.909L121.455 373.455ZM145.073 386.635L143 389.27V390.5V391.73L145.073 394.365L147.145 397H150.5H153.855L155.945 394.343L158.035 391.686L157.431 389.593L156.826 387.5L154.802 385.75L152.778 384H149.962H147.145L145.073 386.635ZM291.667 385.667L291 386.333V389.5V392.667L290.338 393.329L289.676 393.99L286.405 391.495L283.133 389H282.067H281V389.876V390.751L283.553 396.523L286.105 402.295L287.09 401.31L288.074 400.326L287.012 397.531L285.949 394.737L288.503 396.41L291.056 398.083L292.028 397.483L293 396.882L293.04 394.191L293.08 391.5L294.572 394.25L296.064 397H297.517H298.971L296.922 391.802L294.873 386.603L294.377 385.802L293.882 385H293.108H292.333L291.667 385.667ZM153.023 388.023L155.046 390.046L153.958 392.079L152.869 394.113L151.397 394.678L149.926 395.243L147.963 393.466L146 391.69V390.674V389.657L147.655 387.829L149.31 386H150.155H151L153.023 388.023ZM263.447 396.75L264.111 399.5L265.094 403.25L266.077 407H267.606H269.135L268.615 405.25L268.095 403.5L267.455 400.5L266.814 397.5L266.34 395.75L265.865 394H264.324H262.783L263.447 396.75ZM190.666 402.323L187 407.646V408.323V409H188.5H190V408V407H193.383H196.767L197.29 409L197.813 411H199.031H200.25L199.611 407.804L198.972 404.609L197.947 400.804L196.923 397H195.628H194.332L190.666 402.323ZM243.403 402.112L241.411 406.224L238.956 402.619L236.5 399.014L235.25 399.007L234 399L234.011 401.75L234.022 404.5L234.642 408.25L235.262 412H236.762H238.262L237.655 408.264L237.049 404.529L239.435 407.514L241.821 410.5L242.278 410L242.736 409.5L244.328 406.5L245.92 403.5L245.96 407.25L246 411H247.5H249L248.989 408.25L248.978 405.5L248.358 401.75L247.738 398H246.566H245.394L243.403 402.112ZM195.658 404.675L195.133 405.2L194.11 404.568L193.087 403.936L193.693 402.359L194.298 400.781L195.241 402.466L196.183 404.15L195.658 404.675Z" fill="white"/>
</svg>
